<svg width="623" height="101" viewBox="0 0 623 101" fill="none" xmlns="http://www.w3.org/2000/svg">
<circle cx="50" cy="50" r="50" fill="#ADDEE9"/>
<path d="M56.625 23.8125C55.8958 25.4792 55.2448 26.9375 54.6719 28.1875C54.099 29.4375 53.6042 30.5052 53.1875 31.3906C52.7188 32.3802 52.3281 33.2656 52.0156 34.0469C51.7552 34.6198 51.4167 35.401 51 36.3906C50.5833 37.276 50.0625 38.4479 49.4375 39.9062C48.8646 41.3125 48.1094 43.1354 47.1719 45.375C46.7031 43.4479 46.1302 41.7552 45.4531 40.2969C44.776 38.8385 44.0469 37.5625 43.2656 36.4688C42.4844 35.375 41.651 34.4896 40.7656 33.8125C39.9323 33.0833 39.099 32.4844 38.2656 32.0156C36.3385 30.974 34.3073 30.401 32.1719 30.2969C29.3594 30.4531 27.1458 30.9219 25.5312 31.7031C23.9688 32.4323 22.8229 33.2917 22.0938 34.2812C21.3646 35.2188 20.974 36.2083 20.9219 37.25C20.8698 38.2396 21 39.0729 21.3125 39.75C21.5729 40.375 22.4844 41.1042 24.0469 41.9375C25.6615 42.7708 27.5885 43.7344 29.8281 44.8281C32.1198 45.8698 34.5677 47.0677 37.1719 48.4219C39.776 49.724 42.1719 51.1823 44.3594 52.7969C46.599 54.3594 48.474 56.0781 49.9844 57.9531C51.5469 59.776 52.4062 61.7292 52.5625 63.8125C52.7188 66.4688 52.6927 68.8646 52.4844 71C52.276 73.1354 51.5469 74.9583 50.2969 76.4688C49.0469 77.9792 47.0938 79.1771 44.4375 80.0625C41.8333 80.9479 38.2135 81.4948 33.5781 81.7031C28.7865 81.9115 24.8542 81.651 21.7812 80.9219C18.7083 80.1927 16.2083 79.2031 14.2812 77.9531C12.4062 76.7031 11 75.3229 10.0625 73.8125C9.17708 72.3021 8.52604 70.8698 8.10938 69.5156C7.69271 68.1094 7.40625 66.9115 7.25 65.9219C7.09375 64.8802 6.83333 64.2552 6.46875 64.0469C6.05208 63.7865 5.63542 63.5521 5.21875 63.3438C4.85417 63.1354 4.46354 62.9531 4.04688 62.7969C3.63021 62.5885 3.21354 62.4062 2.79688 62.25L25.5312 58.5781C24.2292 59.6198 23.2135 60.5833 22.4844 61.4688C21.8073 62.3542 21.2865 63.1354 20.9219 63.8125C20.5052 64.5938 20.2188 65.3229 20.0625 66C19.9583 66.7292 20.1927 67.6406 20.7656 68.7344C21.3385 69.8281 22.1198 70.8958 23.1094 71.9375C24.151 72.9271 25.349 73.7604 26.7031 74.4375C28.0573 75.1146 29.4635 75.401 30.9219 75.2969C32.7448 75.1406 34.2292 74.6979 35.375 73.9688C36.5208 73.1875 37.3802 72.224 37.9531 71.0781C38.5781 69.9323 38.9427 68.6823 39.0469 67.3281C39.151 65.974 39.0208 64.6458 38.6562 63.3438C38.3438 61.9896 37.8229 60.7396 37.0938 59.5938C36.3646 58.3958 35.5052 57.4062 34.5156 56.625C33.6302 56 32.25 55.401 30.375 54.8281C28.5521 54.2552 26.4948 53.6302 24.2031 52.9531C21.9635 52.276 19.6458 51.4948 17.25 50.6094C14.9062 49.724 12.7708 48.6302 10.8438 47.3281C8.96875 46.026 7.45833 44.4896 6.3125 42.7188C5.21875 40.9479 4.80208 38.8125 5.0625 36.3125C5.27083 34.1771 5.94792 32.4062 7.09375 31C8.29167 29.5417 9.77604 28.3958 11.5469 27.5625C13.3698 26.6771 15.375 26.026 17.5625 25.6094C19.8021 25.1927 22.0677 24.9583 24.3594 24.9062C26.7031 24.8021 28.9948 24.8281 31.2344 24.9844C33.526 25.1406 35.5833 25.3229 37.4062 25.5312C39.2292 25.7396 40.7656 25.9479 42.0156 26.1562C43.3177 26.3125 44.125 26.4167 44.4375 26.4688C45.7917 26.5729 47.1458 26.5469 48.5 26.3906C49.6979 26.2865 51 26.0521 52.4062 25.6875C53.8646 25.2708 55.2708 24.6458 56.625 23.8125Z" fill="white"/>
<path d="M185.625 23.8125C184.896 25.4792 184.245 26.9375 183.672 28.1875C183.099 29.4375 182.604 30.5052 182.188 31.3906C181.719 32.3802 181.328 33.2656 181.016 34.0469C180.755 34.6198 180.417 35.401 180 36.3906C179.583 37.276 179.062 38.4479 178.438 39.9062C177.865 41.3125 177.109 43.1354 176.172 45.375C175.703 43.4479 175.13 41.7552 174.453 40.2969C173.776 38.8385 173.047 37.5625 172.266 36.4688C171.484 35.375 170.651 34.4896 169.766 33.8125C168.932 33.0833 168.099 32.4844 167.266 32.0156C165.339 30.974 163.307 30.401 161.172 30.2969C158.359 30.4531 156.146 30.9219 154.531 31.7031C152.969 32.4323 151.823 33.2917 151.094 34.2812C150.365 35.2188 149.974 36.2083 149.922 37.25C149.87 38.2396 150 39.0729 150.312 39.75C150.573 40.375 151.484 41.1042 153.047 41.9375C154.661 42.7708 156.589 43.7344 158.828 44.8281C161.12 45.8698 163.568 47.0677 166.172 48.4219C168.776 49.724 171.172 51.1823 173.359 52.7969C175.599 54.3594 177.474 56.0781 178.984 57.9531C180.547 59.776 181.406 61.7292 181.562 63.8125C181.719 66.4688 181.693 68.8646 181.484 71C181.276 73.1354 180.547 74.9583 179.297 76.4688C178.047 77.9792 176.094 79.1771 173.438 80.0625C170.833 80.9479 167.214 81.4948 162.578 81.7031C157.786 81.9115 153.854 81.651 150.781 80.9219C147.708 80.1927 145.208 79.2031 143.281 77.9531C141.406 76.7031 140 75.3229 139.062 73.8125C138.177 72.3021 137.526 70.8698 137.109 69.5156C136.693 68.1094 136.406 66.9115 136.25 65.9219C136.094 64.8802 135.833 64.2552 135.469 64.0469C135.052 63.7865 134.635 63.5521 134.219 63.3438C133.854 63.1354 133.464 62.9531 133.047 62.7969C132.63 62.5885 132.214 62.4062 131.797 62.25L154.531 58.5781C153.229 59.6198 152.214 60.5833 151.484 61.4688C150.807 62.3542 150.286 63.1354 149.922 63.8125C149.505 64.5938 149.219 65.3229 149.062 66C148.958 66.7292 149.193 67.6406 149.766 68.7344C150.339 69.8281 151.12 70.8958 152.109 71.9375C153.151 72.9271 154.349 73.7604 155.703 74.4375C157.057 75.1146 158.464 75.401 159.922 75.2969C161.745 75.1406 163.229 74.6979 164.375 73.9688C165.521 73.1875 166.38 72.224 166.953 71.0781C167.578 69.9323 167.943 68.6823 168.047 67.3281C168.151 65.974 168.021 64.6458 167.656 63.3438C167.344 61.9896 166.823 60.7396 166.094 59.5938C165.365 58.3958 164.505 57.4062 163.516 56.625C162.63 56 161.25 55.401 159.375 54.8281C157.552 54.2552 155.495 53.6302 153.203 52.9531C150.964 52.276 148.646 51.4948 146.25 50.6094C143.906 49.724 141.771 48.6302 139.844 47.3281C137.969 46.026 136.458 44.4896 135.312 42.7188C134.219 40.9479 133.802 38.8125 134.062 36.3125C134.271 34.1771 134.948 32.4062 136.094 31C137.292 29.5417 138.776 28.3958 140.547 27.5625C142.37 26.6771 144.375 26.026 146.562 25.6094C148.802 25.1927 151.068 24.9583 153.359 24.9062C155.703 24.8021 157.995 24.8281 160.234 24.9844C162.526 25.1406 164.583 25.3229 166.406 25.5312C168.229 25.7396 169.766 25.9479 171.016 26.1562C172.318 26.3125 173.125 26.4167 173.438 26.4688C174.792 26.5729 176.146 26.5469 177.5 26.3906C178.698 26.2865 180 26.0521 181.406 25.6875C182.865 25.2708 184.271 24.6458 185.625 23.8125ZM191.484 49.3594C191.745 49.0469 191.901 48.474 191.953 47.6406C192.057 46.7552 192.266 45.7656 192.578 44.6719C192.943 43.5781 193.542 42.4323 194.375 41.2344C195.208 40.0365 196.562 38.9167 198.438 37.875C200.26 36.8333 202.031 36.2083 203.75 36C205.469 35.7917 207.109 35.8698 208.672 36.2344C210.234 36.599 211.693 37.1719 213.047 37.9531C214.453 38.7344 215.729 39.5938 216.875 40.5312C217.656 41.1562 218.281 42.0677 218.75 43.2656C219.219 44.4115 219.583 45.7135 219.844 47.1719C220.104 48.6302 220.286 50.1667 220.391 51.7812C220.547 53.3438 220.651 54.8802 220.703 56.3906C220.755 57.849 220.781 59.2031 220.781 60.4531C220.833 61.651 220.938 62.6406 221.094 63.4219C221.302 64.5677 221.667 65.5573 222.188 66.3906C222.708 67.1719 223.281 67.849 223.906 68.4219C224.531 68.9427 225.156 69.3594 225.781 69.6719C226.406 69.9844 226.953 70.2188 227.422 70.375C227.734 70.5312 228.021 70.6354 228.281 70.6875C228.802 70.8958 229.167 70.8958 229.375 70.6875C229.062 71.4167 228.776 72.0417 228.516 72.5625C228.255 73.0833 228.047 73.526 227.891 73.8906C227.682 74.3073 227.5 74.6458 227.344 74.9062C227.188 75.2188 227.005 75.5052 226.797 75.7656C226.641 76.026 226.432 76.3125 226.172 76.625C225.911 76.9375 225.651 77.276 225.391 77.6406C224.714 77.3802 224.062 77.0677 223.438 76.7031C222.865 76.3385 222.344 76 221.875 75.6875C221.302 75.3229 220.781 74.9583 220.312 74.5938C219.844 74.2292 219.401 73.8125 218.984 73.3438C218.62 72.9271 218.229 72.4844 217.812 72.0156C217.448 71.5469 217.135 71.026 216.875 70.4531C216.562 71.1302 215.807 72.0938 214.609 73.3438C213.464 74.5938 211.953 75.7396 210.078 76.7812C208.203 77.7708 206.016 78.474 203.516 78.8906C201.068 79.3073 198.359 79.0208 195.391 78.0312C194.089 77.6146 192.865 77.0156 191.719 76.2344C190.573 75.401 189.583 74.4115 188.75 73.2656C187.969 72.1198 187.396 70.8177 187.031 69.3594C186.719 67.849 186.745 66.1823 187.109 64.3594C187.474 62.5365 188.125 61 189.062 59.75C190 58.5 191.12 57.4844 192.422 56.7031C193.724 55.9219 195.182 55.3229 196.797 54.9062C198.411 54.4896 200.078 54.2031 201.797 54.0469C203.151 53.9948 204.505 54.0729 205.859 54.2812C207.005 54.4896 208.203 54.8802 209.453 55.4531C210.703 55.974 211.771 56.7812 212.656 57.875C212.604 55.1146 212.5 52.9271 212.344 51.3125C212.24 49.6458 212.135 48.3698 212.031 47.4844C211.823 46.4427 211.641 45.7135 211.484 45.2969C211.224 44.9323 210.938 44.5156 210.625 44.0469C210.365 43.5781 210.026 43.1615 209.609 42.7969C209.193 42.3802 208.672 42.0417 208.047 41.7812C207.422 41.5208 206.693 41.4167 205.859 41.4688C204.974 41.5208 204.271 41.7552 203.75 42.1719C203.229 42.5885 202.812 43.0833 202.5 43.6562C202.24 44.1771 202.083 44.75 202.031 45.375C201.979 46 202.005 46.5469 202.109 47.0156C202.214 47.3281 202.37 47.6667 202.578 48.0312C202.786 48.3438 203.073 48.6823 203.438 49.0469C203.802 49.4115 204.297 49.724 204.922 49.9844C203.724 50.1406 202.656 50.2708 201.719 50.375C200.781 50.4271 199.974 50.5052 199.297 50.6094C198.516 50.7135 197.839 50.7917 197.266 50.8438C196.693 50.8958 196.016 51 195.234 51.1562C194.557 51.2604 193.724 51.3906 192.734 51.5469C191.745 51.7031 190.599 51.9115 189.297 52.1719C189.609 51.8073 189.896 51.4688 190.156 51.1562C190.417 50.7917 190.651 50.4792 190.859 50.2188C191.068 49.9062 191.276 49.6198 191.484 49.3594ZM203.203 58.6562C202.266 58.7083 201.328 58.9427 200.391 59.3594C199.453 59.724 198.62 60.2708 197.891 61C197.161 61.6771 196.536 62.4844 196.016 63.4219C195.547 64.3073 195.312 65.2969 195.312 66.3906C195.312 67.4844 195.573 68.4479 196.094 69.2812C196.667 70.0625 197.396 70.7135 198.281 71.2344C199.219 71.7552 200.208 72.0677 201.25 72.1719C202.344 72.276 203.411 72.1719 204.453 71.8594C205.443 71.4948 206.38 70.9219 207.266 70.1406C208.151 69.3073 208.906 68.4219 209.531 67.4844C210.156 66.4948 210.599 65.5312 210.859 64.5938C211.12 63.6042 211.146 62.7969 210.938 62.1719C210.521 60.8177 209.583 59.8802 208.125 59.3594C206.667 58.7865 205.026 58.5521 203.203 58.6562ZM230.391 83.1875C230.911 82.4062 231.328 81.6771 231.641 81C231.953 80.3229 232.214 79.75 232.422 79.2812C232.63 78.7083 232.786 78.1875 232.891 77.7188C232.943 77.4062 232.969 76.4948 232.969 74.9844C232.969 73.474 232.917 71.5729 232.812 69.2812C232.76 66.9896 232.682 64.4115 232.578 61.5469C232.526 58.6823 232.422 55.7656 232.266 52.7969C232.161 49.8281 232.031 46.9375 231.875 44.125C231.771 41.3125 231.667 38.7865 231.562 36.5469C231.458 34.2552 231.354 32.3802 231.25 30.9219C231.146 29.4635 231.068 28.6302 231.016 28.4219C230.911 28.1094 230.729 27.7969 230.469 27.4844C229.948 26.8594 229.062 26.2604 227.812 25.6875C230.469 25.0104 232.5 24.4635 233.906 24.0469C234.74 23.8385 235.469 23.6302 236.094 23.4219C236.667 23.2135 237.24 23.0052 237.812 22.7969C238.281 22.5885 238.802 22.3542 239.375 22.0938C239.948 21.7812 240.469 21.4427 240.938 21.0781C240.677 22.5885 240.469 24.0469 240.312 25.4531C240.156 26.8594 240.026 28.1615 239.922 29.3594C239.818 30.7135 239.766 32.0156 239.766 33.2656C239.505 35.8177 239.349 38.6042 239.297 41.625C239.297 44.5938 239.323 47.6146 239.375 50.6875C239.427 53.7604 239.531 56.7552 239.688 59.6719C239.844 62.5885 240 65.2448 240.156 67.6406C240.365 69.9844 240.547 71.9896 240.703 73.6562C240.911 75.2708 241.068 76.3125 241.172 76.7812C241.38 77.5625 241.589 78.3177 241.797 79.0469C242.005 79.6719 242.24 80.3229 242.5 81C242.76 81.7292 243.073 82.3021 243.438 82.7188H235.859C235.182 82.7188 234.531 82.7448 233.906 82.7969C233.333 82.849 232.734 82.901 232.109 82.9531C231.484 83.0052 230.911 83.0833 230.391 83.1875ZM246.25 46.0781L260.625 46.2344C259.792 49.4115 259.167 52.1198 258.75 54.3594C258.385 56.599 258.151 58.474 258.047 59.9844C257.839 61.7031 257.786 63.1615 257.891 64.3594C258.047 65.4531 258.307 66.625 258.672 67.875C258.984 68.9167 259.453 70.1146 260.078 71.4688C260.703 72.8229 261.536 74.1771 262.578 75.5312C261.953 75.3229 261.276 75.1667 260.547 75.0625C259.818 74.9583 259.141 74.8802 258.516 74.8281C257.786 74.776 257.057 74.776 256.328 74.8281C255.599 74.8802 254.792 74.9583 253.906 75.0625C253.177 75.1667 252.292 75.2969 251.25 75.4531C250.208 75.6094 249.115 75.8177 247.969 76.0781C248.75 73.7344 249.349 71.7031 249.766 69.9844C250.234 68.2656 250.573 66.8333 250.781 65.6875C250.99 64.3333 251.12 63.2396 251.172 62.4062C251.172 61.3646 251.172 60.1927 251.172 58.8906C251.172 57.5365 251.172 56.2344 251.172 54.9844C251.172 53.7344 251.146 52.6406 251.094 51.7031C251.042 50.7135 250.938 50.0885 250.781 49.8281L250 49.0469C249.688 48.7865 249.219 48.4219 248.594 47.9531C248.021 47.4323 247.24 46.8073 246.25 46.0781ZM251.797 34.0469C252.891 33.474 253.984 33.3177 255.078 33.5781C256.224 33.8385 257.109 34.3333 257.734 35.0625C258.359 35.7917 258.568 36.651 258.359 37.6406C258.203 38.6302 257.37 39.5938 255.859 40.5312C254.349 41.4167 253.021 41.7292 251.875 41.4688C250.729 41.2083 249.922 40.6615 249.453 39.8281C248.984 38.9948 248.906 38.0312 249.219 36.9375C249.531 35.7917 250.391 34.8281 251.797 34.0469ZM265 43.9688C266.198 43.8646 267.214 43.7604 268.047 43.6562C268.932 43.5521 269.661 43.4479 270.234 43.3438C270.911 43.2396 271.484 43.1354 271.953 43.0312C272.422 42.9792 272.943 42.875 273.516 42.7188C274.036 42.6146 274.609 42.4844 275.234 42.3281C275.911 42.1198 276.641 41.8854 277.422 41.625L276.953 51.5469C278.099 49.724 279.427 48.3438 280.938 47.4062C282.448 46.4167 283.88 45.6875 285.234 45.2188C286.849 44.6458 288.464 44.3073 290.078 44.2031C291.745 44.2552 293.281 44.5156 294.688 44.9844C295.885 45.401 297.083 46.0521 298.281 46.9375C299.531 47.8229 300.495 49.125 301.172 50.8438C302.943 49.0208 304.688 47.6146 306.406 46.625C308.177 45.5833 309.74 44.8021 311.094 44.2812C312.708 43.7083 314.219 43.3698 315.625 43.2656C317.5 43.2135 319.219 43.526 320.781 44.2031C322.396 44.8802 323.802 45.7396 325 46.7812C326.198 47.7708 327.161 48.8385 327.891 49.9844C328.62 51.0781 329.036 52.0417 329.141 52.875C329.297 54.0208 329.219 55.5052 328.906 57.3281C328.594 59.099 328.229 60.9219 327.812 62.7969C327.396 64.6198 327.005 66.3125 326.641 67.875C326.328 69.3854 326.198 70.4531 326.25 71.0781C326.406 71.599 326.771 72.224 327.344 72.9531C327.865 73.5781 328.62 74.3594 329.609 75.2969C330.651 76.1823 332.135 77.224 334.062 78.4219C332.396 78.3698 330.911 78.3177 329.609 78.2656C328.359 78.2135 327.292 78.1354 326.406 78.0312C325.365 77.9271 324.453 77.849 323.672 77.7969C323.047 77.7969 322.292 77.7448 321.406 77.6406C320.677 77.5885 319.714 77.5104 318.516 77.4062C317.37 77.3021 316.042 77.1979 314.531 77.0938C315.104 76.9375 315.573 76.651 315.938 76.2344C316.302 75.7656 316.615 75.3229 316.875 74.9062C317.135 74.3854 317.344 73.8125 317.5 73.1875C317.604 72.6667 317.708 71.8333 317.812 70.6875C317.917 69.5417 317.995 68.2396 318.047 66.7812C318.151 65.3229 318.203 63.7865 318.203 62.1719C318.255 60.5573 318.255 59.0208 318.203 57.5625C318.151 56.1042 318.047 54.776 317.891 53.5781C317.734 52.3802 317.526 51.4688 317.266 50.8438C317.057 50.375 316.693 50.0104 316.172 49.75C315.651 49.4375 315.052 49.2552 314.375 49.2031C313.698 49.099 313.021 49.125 312.344 49.2812C311.667 49.3854 311.068 49.5938 310.547 49.9062C310.078 50.2708 309.453 50.7656 308.672 51.3906C307.995 51.9635 307.109 52.7448 306.016 53.7344C304.922 54.724 303.542 55.974 301.875 57.4844C301.719 60.7656 301.589 63.4219 301.484 65.4531C301.432 67.4323 301.38 68.9427 301.328 69.9844C301.276 71.2344 301.25 72.0938 301.25 72.5625C301.198 72.9792 301.224 73.3698 301.328 73.7344C301.432 74.5156 301.745 75.2448 302.266 75.9219C301.641 75.7656 300.964 75.6615 300.234 75.6094C299.557 75.5573 298.932 75.5052 298.359 75.4531C297.682 75.401 297.005 75.375 296.328 75.375C295.755 75.375 295.13 75.401 294.453 75.4531C293.88 75.5052 293.177 75.5833 292.344 75.6875C291.51 75.7396 290.599 75.8177 289.609 75.9219C290.026 75.6615 290.365 75.349 290.625 74.9844C290.885 74.6198 291.094 74.2812 291.25 73.9688C291.458 73.6042 291.615 73.2656 291.719 72.9531C291.771 72.6406 291.875 71.8854 292.031 70.6875C292.188 69.4375 292.292 67.9792 292.344 66.3125C292.396 64.6458 292.396 62.901 292.344 61.0781C292.292 59.2031 292.109 57.5104 291.797 56C291.484 54.4375 290.99 53.1615 290.312 52.1719C289.688 51.1823 288.854 50.7396 287.812 50.8438C286.562 50.9479 285.286 51.2604 283.984 51.7812C282.891 52.1979 281.719 52.8229 280.469 53.6562C279.219 54.4896 278.047 55.6094 276.953 57.0156C276.745 60.9219 276.615 64.0208 276.562 66.3125C276.562 68.6042 276.589 70.349 276.641 71.5469C276.693 72.9531 276.745 73.9167 276.797 74.4375C276.849 74.8021 276.979 75.1667 277.188 75.5312C277.344 75.8438 277.526 76.2083 277.734 76.625C277.995 77.0417 278.281 77.4323 278.594 77.7969L266.172 77.1719C266.589 76.9635 266.953 76.7031 267.266 76.3906C267.578 76.026 267.839 75.6615 268.047 75.2969C268.255 74.8802 268.464 74.4635 268.672 74.0469C268.828 73.6823 268.958 72.8229 269.062 71.4688C269.219 70.1146 269.349 68.526 269.453 66.7031C269.557 64.8281 269.635 62.875 269.688 60.8438C269.792 58.7604 269.844 56.8333 269.844 55.0625C269.896 53.2396 269.922 51.7031 269.922 50.4531C269.922 49.151 269.896 48.3698 269.844 48.1094C269.688 47.5885 269.401 47.0417 268.984 46.4688C268.62 46.0521 268.125 45.6094 267.5 45.1406C266.875 44.6198 266.042 44.2292 265 43.9688ZM357.266 25.2969C359.089 25.5573 360.677 25.7656 362.031 25.9219C363.385 26.0781 364.505 26.2083 365.391 26.3125C366.432 26.4167 367.318 26.4948 368.047 26.5469C368.88 26.651 369.896 26.599 371.094 26.3906C372.344 26.1823 373.672 25.974 375.078 25.7656C376.484 25.5052 377.943 25.2969 379.453 25.1406C380.964 24.9844 382.422 24.9844 383.828 25.1406C384.766 25.2448 385.964 25.4531 387.422 25.7656C388.88 26.0781 390.417 26.5729 392.031 27.25C393.698 27.9271 395.365 28.8125 397.031 29.9062C398.698 31 400.208 32.3802 401.562 34.0469C402.917 35.7135 404.036 37.6927 404.922 39.9844C405.807 42.276 406.302 44.9583 406.406 48.0312C406.562 52.6146 406.146 56.7812 405.156 60.5312C404.167 64.2812 402.63 67.4844 400.547 70.1406C398.516 72.7969 395.938 74.8802 392.812 76.3906C389.688 77.901 386.042 78.7344 381.875 78.8906C378.698 79.151 375.573 79.3854 372.5 79.5938C371.198 79.6979 369.818 79.776 368.359 79.8281C366.953 79.8802 365.547 79.9323 364.141 79.9844C362.734 79.9844 361.38 79.9583 360.078 79.9062C358.776 79.8542 357.578 79.776 356.484 79.6719C357.682 79.099 358.646 78.526 359.375 77.9531C360.156 77.3802 360.755 76.8854 361.172 76.4688C361.641 75.9479 361.979 75.4792 362.188 75.0625C362.292 74.4896 362.448 73.3698 362.656 71.7031C362.812 70.2969 363.021 68.2917 363.281 65.6875C363.542 63.0833 363.854 59.5417 364.219 55.0625L364.688 49.5156C364.948 46.0781 365.052 43.2656 365 41.0781C365 38.8906 364.948 37.1719 364.844 35.9219C364.688 34.4635 364.479 33.3958 364.219 32.7188C364.01 32.1458 363.62 31.4688 363.047 30.6875C362.526 30.0625 361.797 29.3073 360.859 28.4219C359.974 27.4844 358.776 26.4427 357.266 25.2969ZM373.75 54.0469C373.854 58.6823 374.089 62.25 374.453 64.75C374.87 67.1979 375.312 69.0208 375.781 70.2188C376.354 71.5729 376.979 72.3802 377.656 72.6406C378.646 72.6406 379.766 72.224 381.016 71.3906C382.266 70.5052 383.49 69.1771 384.688 67.4062C385.938 65.6354 387.057 63.4219 388.047 60.7656C389.089 58.1094 389.844 55.0104 390.312 51.4688C390.781 47.9271 390.651 44.8021 389.922 42.0938C389.193 39.3854 388.229 37.1198 387.031 35.2969C385.833 33.4219 384.609 32.0156 383.359 31.0781C382.109 30.0885 381.172 29.5938 380.547 29.5938C379.818 29.5938 379.167 29.8021 378.594 30.2188C378.021 30.5833 377.214 31.4427 376.172 32.7969C375.651 33.526 375.182 34.5677 374.766 35.9219C374.401 37.1198 374.089 38.7083 373.828 40.6875C373.568 42.6667 373.49 45.2188 373.594 48.3438L373.75 54.0469ZM415.859 49.3594C416.12 49.0469 416.276 48.474 416.328 47.6406C416.432 46.7552 416.641 45.7656 416.953 44.6719C417.318 43.5781 417.917 42.4323 418.75 41.2344C419.583 40.0365 420.938 38.9167 422.812 37.875C424.635 36.8333 426.406 36.2083 428.125 36C429.844 35.7917 431.484 35.8698 433.047 36.2344C434.609 36.599 436.068 37.1719 437.422 37.9531C438.828 38.7344 440.104 39.5938 441.25 40.5312C442.031 41.1562 442.656 42.0677 443.125 43.2656C443.594 44.4115 443.958 45.7135 444.219 47.1719C444.479 48.6302 444.661 50.1667 444.766 51.7812C444.922 53.3438 445.026 54.8802 445.078 56.3906C445.13 57.849 445.156 59.2031 445.156 60.4531C445.208 61.651 445.312 62.6406 445.469 63.4219C445.677 64.5677 446.042 65.5573 446.562 66.3906C447.083 67.1719 447.656 67.849 448.281 68.4219C448.906 68.9427 449.531 69.3594 450.156 69.6719C450.781 69.9844 451.328 70.2188 451.797 70.375C452.109 70.5312 452.396 70.6354 452.656 70.6875C453.177 70.8958 453.542 70.8958 453.75 70.6875C453.438 71.4167 453.151 72.0417 452.891 72.5625C452.63 73.0833 452.422 73.526 452.266 73.8906C452.057 74.3073 451.875 74.6458 451.719 74.9062C451.562 75.2188 451.38 75.5052 451.172 75.7656C451.016 76.026 450.807 76.3125 450.547 76.625C450.286 76.9375 450.026 77.276 449.766 77.6406C449.089 77.3802 448.438 77.0677 447.812 76.7031C447.24 76.3385 446.719 76 446.25 75.6875C445.677 75.3229 445.156 74.9583 444.688 74.5938C444.219 74.2292 443.776 73.8125 443.359 73.3438C442.995 72.9271 442.604 72.4844 442.188 72.0156C441.823 71.5469 441.51 71.026 441.25 70.4531C440.938 71.1302 440.182 72.0938 438.984 73.3438C437.839 74.5938 436.328 75.7396 434.453 76.7812C432.578 77.7708 430.391 78.474 427.891 78.8906C425.443 79.3073 422.734 79.0208 419.766 78.0312C418.464 77.6146 417.24 77.0156 416.094 76.2344C414.948 75.401 413.958 74.4115 413.125 73.2656C412.344 72.1198 411.771 70.8177 411.406 69.3594C411.094 67.849 411.12 66.1823 411.484 64.3594C411.849 62.5365 412.5 61 413.438 59.75C414.375 58.5 415.495 57.4844 416.797 56.7031C418.099 55.9219 419.557 55.3229 421.172 54.9062C422.786 54.4896 424.453 54.2031 426.172 54.0469C427.526 53.9948 428.88 54.0729 430.234 54.2812C431.38 54.4896 432.578 54.8802 433.828 55.4531C435.078 55.974 436.146 56.7812 437.031 57.875C436.979 55.1146 436.875 52.9271 436.719 51.3125C436.615 49.6458 436.51 48.3698 436.406 47.4844C436.198 46.4427 436.016 45.7135 435.859 45.2969C435.599 44.9323 435.312 44.5156 435 44.0469C434.74 43.5781 434.401 43.1615 433.984 42.7969C433.568 42.3802 433.047 42.0417 432.422 41.7812C431.797 41.5208 431.068 41.4167 430.234 41.4688C429.349 41.5208 428.646 41.7552 428.125 42.1719C427.604 42.5885 427.188 43.0833 426.875 43.6562C426.615 44.1771 426.458 44.75 426.406 45.375C426.354 46 426.38 46.5469 426.484 47.0156C426.589 47.3281 426.745 47.6667 426.953 48.0312C427.161 48.3438 427.448 48.6823 427.812 49.0469C428.177 49.4115 428.672 49.724 429.297 49.9844C428.099 50.1406 427.031 50.2708 426.094 50.375C425.156 50.4271 424.349 50.5052 423.672 50.6094C422.891 50.7135 422.214 50.7917 421.641 50.8438C421.068 50.8958 420.391 51 419.609 51.1562C418.932 51.2604 418.099 51.3906 417.109 51.5469C416.12 51.7031 414.974 51.9115 413.672 52.1719C413.984 51.8073 414.271 51.4688 414.531 51.1562C414.792 50.7917 415.026 50.4792 415.234 50.2188C415.443 49.9062 415.651 49.6198 415.859 49.3594ZM427.578 58.6562C426.641 58.7083 425.703 58.9427 424.766 59.3594C423.828 59.724 422.995 60.2708 422.266 61C421.536 61.6771 420.911 62.4844 420.391 63.4219C419.922 64.3073 419.688 65.2969 419.688 66.3906C419.688 67.4844 419.948 68.4479 420.469 69.2812C421.042 70.0625 421.771 70.7135 422.656 71.2344C423.594 71.7552 424.583 72.0677 425.625 72.1719C426.719 72.276 427.786 72.1719 428.828 71.8594C429.818 71.4948 430.755 70.9219 431.641 70.1406C432.526 69.3073 433.281 68.4219 433.906 67.4844C434.531 66.4948 434.974 65.5312 435.234 64.5938C435.495 63.6042 435.521 62.7969 435.312 62.1719C434.896 60.8177 433.958 59.8802 432.5 59.3594C431.042 58.7865 429.401 58.5521 427.578 58.6562ZM452.578 43.9688C453.776 43.8646 454.792 43.7604 455.625 43.6562C456.51 43.5521 457.24 43.4479 457.812 43.3438C458.49 43.2396 459.062 43.1354 459.531 43.0312C460 42.9792 460.521 42.875 461.094 42.7188C461.615 42.6146 462.188 42.4844 462.812 42.3281C463.49 42.1198 464.219 41.8854 465 41.625L464.531 51.5469C465.677 49.724 467.005 48.3438 468.516 47.4062C470.026 46.4167 471.458 45.6875 472.812 45.2188C474.427 44.6458 476.042 44.3073 477.656 44.2031C479.323 44.2552 480.859 44.5156 482.266 44.9844C483.464 45.401 484.661 46.0521 485.859 46.9375C487.109 47.8229 488.073 49.125 488.75 50.8438C490.521 49.0208 492.266 47.6146 493.984 46.625C495.755 45.5833 497.318 44.8021 498.672 44.2812C500.286 43.7083 501.797 43.3698 503.203 43.2656C505.078 43.2135 506.797 43.526 508.359 44.2031C509.974 44.8802 511.38 45.7396 512.578 46.7812C513.776 47.7708 514.74 48.8385 515.469 49.9844C516.198 51.0781 516.615 52.0417 516.719 52.875C516.875 54.0208 516.797 55.5052 516.484 57.3281C516.172 59.099 515.807 60.9219 515.391 62.7969C514.974 64.6198 514.583 66.3125 514.219 67.875C513.906 69.3854 513.776 70.4531 513.828 71.0781C513.984 71.599 514.349 72.224 514.922 72.9531C515.443 73.5781 516.198 74.3594 517.188 75.2969C518.229 76.1823 519.714 77.224 521.641 78.4219C519.974 78.3698 518.49 78.3177 517.188 78.2656C515.938 78.2135 514.87 78.1354 513.984 78.0312C512.943 77.9271 512.031 77.849 511.25 77.7969C510.625 77.7969 509.87 77.7448 508.984 77.6406C508.255 77.5885 507.292 77.5104 506.094 77.4062C504.948 77.3021 503.62 77.1979 502.109 77.0938C502.682 76.9375 503.151 76.651 503.516 76.2344C503.88 75.7656 504.193 75.3229 504.453 74.9062C504.714 74.3854 504.922 73.8125 505.078 73.1875C505.182 72.6667 505.286 71.8333 505.391 70.6875C505.495 69.5417 505.573 68.2396 505.625 66.7812C505.729 65.3229 505.781 63.7865 505.781 62.1719C505.833 60.5573 505.833 59.0208 505.781 57.5625C505.729 56.1042 505.625 54.776 505.469 53.5781C505.312 52.3802 505.104 51.4688 504.844 50.8438C504.635 50.375 504.271 50.0104 503.75 49.75C503.229 49.4375 502.63 49.2552 501.953 49.2031C501.276 49.099 500.599 49.125 499.922 49.2812C499.245 49.3854 498.646 49.5938 498.125 49.9062C497.656 50.2708 497.031 50.7656 496.25 51.3906C495.573 51.9635 494.688 52.7448 493.594 53.7344C492.5 54.724 491.12 55.974 489.453 57.4844C489.297 60.7656 489.167 63.4219 489.062 65.4531C489.01 67.4323 488.958 68.9427 488.906 69.9844C488.854 71.2344 488.828 72.0938 488.828 72.5625C488.776 72.9792 488.802 73.3698 488.906 73.7344C489.01 74.5156 489.323 75.2448 489.844 75.9219C489.219 75.7656 488.542 75.6615 487.812 75.6094C487.135 75.5573 486.51 75.5052 485.938 75.4531C485.26 75.401 484.583 75.375 483.906 75.375C483.333 75.375 482.708 75.401 482.031 75.4531C481.458 75.5052 480.755 75.5833 479.922 75.6875C479.089 75.7396 478.177 75.8177 477.188 75.9219C477.604 75.6615 477.943 75.349 478.203 74.9844C478.464 74.6198 478.672 74.2812 478.828 73.9688C479.036 73.6042 479.193 73.2656 479.297 72.9531C479.349 72.6406 479.453 71.8854 479.609 70.6875C479.766 69.4375 479.87 67.9792 479.922 66.3125C479.974 64.6458 479.974 62.901 479.922 61.0781C479.87 59.2031 479.688 57.5104 479.375 56C479.062 54.4375 478.568 53.1615 477.891 52.1719C477.266 51.1823 476.432 50.7396 475.391 50.8438C474.141 50.9479 472.865 51.2604 471.562 51.7812C470.469 52.1979 469.297 52.8229 468.047 53.6562C466.797 54.4896 465.625 55.6094 464.531 57.0156C464.323 60.9219 464.193 64.0208 464.141 66.3125C464.141 68.6042 464.167 70.349 464.219 71.5469C464.271 72.9531 464.323 73.9167 464.375 74.4375C464.427 74.8021 464.557 75.1667 464.766 75.5312C464.922 75.8438 465.104 76.2083 465.312 76.625C465.573 77.0417 465.859 77.4323 466.172 77.7969L453.75 77.1719C454.167 76.9635 454.531 76.7031 454.844 76.3906C455.156 76.026 455.417 75.6615 455.625 75.2969C455.833 74.8802 456.042 74.4635 456.25 74.0469C456.406 73.6823 456.536 72.8229 456.641 71.4688C456.797 70.1146 456.927 68.526 457.031 66.7031C457.135 64.8281 457.214 62.875 457.266 60.8438C457.37 58.7604 457.422 56.8333 457.422 55.0625C457.474 53.2396 457.5 51.7031 457.5 50.4531C457.5 49.151 457.474 48.3698 457.422 48.1094C457.266 47.5885 456.979 47.0417 456.562 46.4688C456.198 46.0521 455.703 45.6094 455.078 45.1406C454.453 44.6198 453.62 44.2292 452.578 43.9688ZM522.031 46.0781L536.406 46.2344C535.573 49.4115 534.948 52.1198 534.531 54.3594C534.167 56.599 533.932 58.474 533.828 59.9844C533.62 61.7031 533.568 63.1615 533.672 64.3594C533.828 65.4531 534.089 66.625 534.453 67.875C534.766 68.9167 535.234 70.1146 535.859 71.4688C536.484 72.8229 537.318 74.1771 538.359 75.5312C537.734 75.3229 537.057 75.1667 536.328 75.0625C535.599 74.9583 534.922 74.8802 534.297 74.8281C533.568 74.776 532.839 74.776 532.109 74.8281C531.38 74.8802 530.573 74.9583 529.688 75.0625C528.958 75.1667 528.073 75.2969 527.031 75.4531C525.99 75.6094 524.896 75.8177 523.75 76.0781C524.531 73.7344 525.13 71.7031 525.547 69.9844C526.016 68.2656 526.354 66.8333 526.562 65.6875C526.771 64.3333 526.901 63.2396 526.953 62.4062C526.953 61.3646 526.953 60.1927 526.953 58.8906C526.953 57.5365 526.953 56.2344 526.953 54.9844C526.953 53.7344 526.927 52.6406 526.875 51.7031C526.823 50.7135 526.719 50.0885 526.562 49.8281L525.781 49.0469C525.469 48.7865 525 48.4219 524.375 47.9531C523.802 47.4323 523.021 46.8073 522.031 46.0781ZM527.578 34.0469C528.672 33.474 529.766 33.3177 530.859 33.5781C532.005 33.8385 532.891 34.3333 533.516 35.0625C534.141 35.7917 534.349 36.651 534.141 37.6406C533.984 38.6302 533.151 39.5938 531.641 40.5312C530.13 41.4167 528.802 41.7292 527.656 41.4688C526.51 41.2083 525.703 40.6615 525.234 39.8281C524.766 38.9948 524.688 38.0312 525 36.9375C525.312 35.7917 526.172 34.8281 527.578 34.0469ZM575.625 36.3906C575.156 37.5365 574.74 38.5781 574.375 39.5156C574.062 40.4531 573.776 41.2865 573.516 42.0156C573.255 42.849 573.021 43.5781 572.812 44.2031C572.604 44.9323 572.37 45.7656 572.109 46.7031C571.849 47.5365 571.51 48.5781 571.094 49.8281C570.729 51.026 570.286 52.4583 569.766 54.125C569.349 51.625 568.594 49.6458 567.5 48.1875C566.406 46.6771 565.286 45.5052 564.141 44.6719C562.786 43.7344 561.328 43.0573 559.766 42.6406C556.953 42.1719 554.922 42.224 553.672 42.7969C552.422 43.3698 551.589 44.099 551.172 44.9844C550.964 45.349 550.729 45.8177 550.469 46.3906C550.26 46.9115 550.078 47.4583 549.922 48.0312C549.818 48.6042 549.792 49.1771 549.844 49.75C549.896 50.3229 550.13 50.7917 550.547 51.1562C550.807 51.4167 551.484 51.7812 552.578 52.25C553.672 52.6667 554.974 53.1615 556.484 53.7344C558.047 54.2552 559.688 54.8281 561.406 55.4531C563.177 56.0781 564.844 56.7031 566.406 57.3281C567.969 57.9531 569.323 58.5781 570.469 59.2031C571.615 59.8281 572.37 60.401 572.734 60.9219C573.047 61.4427 573.385 62.1458 573.75 63.0312C574.167 63.8646 574.453 64.8021 574.609 65.8438C574.818 66.8333 574.87 67.875 574.766 68.9688C574.714 70.0104 574.427 71.0521 573.906 72.0938C573.385 73.1354 572.552 74.099 571.406 74.9844C570.312 75.8698 568.828 76.599 566.953 77.1719C564.766 77.849 562.656 78.0312 560.625 77.7188C558.594 77.4062 556.719 76.9375 555 76.3125C553.333 75.6875 551.875 75.0885 550.625 74.5156C549.375 73.8906 548.49 73.6302 547.969 73.7344C547.396 73.8385 546.745 74.125 546.016 74.5938C545.286 75.0625 544.583 75.5573 543.906 76.0781C543.281 76.5469 542.734 76.9896 542.266 77.4062C541.797 77.7708 541.562 77.901 541.562 77.7969C541.562 77.6927 541.641 77.3802 541.797 76.8594C542.005 76.3385 542.214 75.7135 542.422 74.9844C542.682 74.2031 542.917 73.3698 543.125 72.4844C543.385 71.5469 543.568 70.6615 543.672 69.8281C543.776 69.151 543.906 68.3177 544.062 67.3281C544.167 66.4427 544.297 65.375 544.453 64.125C544.661 62.8229 544.896 61.2604 545.156 59.4375C545.417 60.7917 545.781 61.9635 546.25 62.9531C546.771 63.9427 547.266 64.8021 547.734 65.5312C548.307 66.3646 548.854 67.0677 549.375 67.6406C550.156 68.3698 551.068 69.0469 552.109 69.6719C553.203 70.2969 554.297 70.8438 555.391 71.3125C556.484 71.7292 557.526 71.9896 558.516 72.0938C559.505 72.1979 560.339 72.0938 561.016 71.7812C561.693 71.4688 562.266 70.8958 562.734 70.0625C563.255 69.2292 563.62 68.3177 563.828 67.3281C564.036 66.3385 564.115 65.401 564.062 64.5156C564.01 63.5781 563.776 62.8229 563.359 62.25C563.047 61.8854 562.318 61.4167 561.172 60.8438C560.078 60.2708 558.75 59.6458 557.188 58.9688C555.677 58.2917 554.062 57.5885 552.344 56.8594C550.677 56.1302 549.089 55.401 547.578 54.6719C546.12 53.8906 544.896 53.1615 543.906 52.4844C542.969 51.7552 542.448 51.1042 542.344 50.5312C542.24 49.6979 542.161 48.7865 542.109 47.7969C542.057 46.7552 542.109 45.7396 542.266 44.75C542.474 43.7083 542.839 42.7188 543.359 41.7812C543.932 40.8438 544.766 40.0625 545.859 39.4375C546.589 39.0208 547.552 38.7083 548.75 38.5C549.948 38.2917 551.276 38.1875 552.734 38.1875C554.193 38.1354 555.703 38.1875 557.266 38.3438C558.828 38.4479 560.312 38.6042 561.719 38.8125C563.177 38.9688 564.479 39.1771 565.625 39.4375C566.823 39.6979 567.734 39.9323 568.359 40.1406C569.089 40.401 569.87 40.4271 570.703 40.2188C571.432 40.0625 572.214 39.724 573.047 39.2031C573.88 38.6823 574.74 37.7448 575.625 36.3906ZM584.297 49.3594C584.557 49.0469 584.714 48.474 584.766 47.6406C584.87 46.7552 585.078 45.7656 585.391 44.6719C585.755 43.5781 586.354 42.4323 587.188 41.2344C588.021 40.0365 589.375 38.9167 591.25 37.875C593.073 36.8333 594.844 36.2083 596.562 36C598.281 35.7917 599.922 35.8698 601.484 36.2344C603.047 36.599 604.505 37.1719 605.859 37.9531C607.266 38.7344 608.542 39.5938 609.688 40.5312C610.469 41.1562 611.094 42.0677 611.562 43.2656C612.031 44.4115 612.396 45.7135 612.656 47.1719C612.917 48.6302 613.099 50.1667 613.203 51.7812C613.359 53.3438 613.464 54.8802 613.516 56.3906C613.568 57.849 613.594 59.2031 613.594 60.4531C613.646 61.651 613.75 62.6406 613.906 63.4219C614.115 64.5677 614.479 65.5573 615 66.3906C615.521 67.1719 616.094 67.849 616.719 68.4219C617.344 68.9427 617.969 69.3594 618.594 69.6719C619.219 69.9844 619.766 70.2188 620.234 70.375C620.547 70.5312 620.833 70.6354 621.094 70.6875C621.615 70.8958 621.979 70.8958 622.188 70.6875C621.875 71.4167 621.589 72.0417 621.328 72.5625C621.068 73.0833 620.859 73.526 620.703 73.8906C620.495 74.3073 620.312 74.6458 620.156 74.9062C620 75.2188 619.818 75.5052 619.609 75.7656C619.453 76.026 619.245 76.3125 618.984 76.625C618.724 76.9375 618.464 77.276 618.203 77.6406C617.526 77.3802 616.875 77.0677 616.25 76.7031C615.677 76.3385 615.156 76 614.688 75.6875C614.115 75.3229 613.594 74.9583 613.125 74.5938C612.656 74.2292 612.214 73.8125 611.797 73.3438C611.432 72.9271 611.042 72.4844 610.625 72.0156C610.26 71.5469 609.948 71.026 609.688 70.4531C609.375 71.1302 608.62 72.0938 607.422 73.3438C606.276 74.5938 604.766 75.7396 602.891 76.7812C601.016 77.7708 598.828 78.474 596.328 78.8906C593.88 79.3073 591.172 79.0208 588.203 78.0312C586.901 77.6146 585.677 77.0156 584.531 76.2344C583.385 75.401 582.396 74.4115 581.562 73.2656C580.781 72.1198 580.208 70.8177 579.844 69.3594C579.531 67.849 579.557 66.1823 579.922 64.3594C580.286 62.5365 580.938 61 581.875 59.75C582.812 58.5 583.932 57.4844 585.234 56.7031C586.536 55.9219 587.995 55.3229 589.609 54.9062C591.224 54.4896 592.891 54.2031 594.609 54.0469C595.964 53.9948 597.318 54.0729 598.672 54.2812C599.818 54.4896 601.016 54.8802 602.266 55.4531C603.516 55.974 604.583 56.7812 605.469 57.875C605.417 55.1146 605.312 52.9271 605.156 51.3125C605.052 49.6458 604.948 48.3698 604.844 47.4844C604.635 46.4427 604.453 45.7135 604.297 45.2969C604.036 44.9323 603.75 44.5156 603.438 44.0469C603.177 43.5781 602.839 43.1615 602.422 42.7969C602.005 42.3802 601.484 42.0417 600.859 41.7812C600.234 41.5208 599.505 41.4167 598.672 41.4688C597.786 41.5208 597.083 41.7552 596.562 42.1719C596.042 42.5885 595.625 43.0833 595.312 43.6562C595.052 44.1771 594.896 44.75 594.844 45.375C594.792 46 594.818 46.5469 594.922 47.0156C595.026 47.3281 595.182 47.6667 595.391 48.0312C595.599 48.3438 595.885 48.6823 596.25 49.0469C596.615 49.4115 597.109 49.724 597.734 49.9844C596.536 50.1406 595.469 50.2708 594.531 50.375C593.594 50.4271 592.786 50.5052 592.109 50.6094C591.328 50.7135 590.651 50.7917 590.078 50.8438C589.505 50.8958 588.828 51 588.047 51.1562C587.37 51.2604 586.536 51.3906 585.547 51.5469C584.557 51.7031 583.411 51.9115 582.109 52.1719C582.422 51.8073 582.708 51.4688 582.969 51.1562C583.229 50.7917 583.464 50.4792 583.672 50.2188C583.88 49.9062 584.089 49.6198 584.297 49.3594ZM596.016 58.6562C595.078 58.7083 594.141 58.9427 593.203 59.3594C592.266 59.724 591.432 60.2708 590.703 61C589.974 61.6771 589.349 62.4844 588.828 63.4219C588.359 64.3073 588.125 65.2969 588.125 66.3906C588.125 67.4844 588.385 68.4479 588.906 69.2812C589.479 70.0625 590.208 70.7135 591.094 71.2344C592.031 71.7552 593.021 72.0677 594.062 72.1719C595.156 72.276 596.224 72.1719 597.266 71.8594C598.255 71.4948 599.193 70.9219 600.078 70.1406C600.964 69.3073 601.719 68.4219 602.344 67.4844C602.969 66.4948 603.411 65.5312 603.672 64.5938C603.932 63.6042 603.958 62.7969 603.75 62.1719C603.333 60.8177 602.396 59.8802 600.938 59.3594C599.479 58.7865 597.839 58.5521 596.016 58.6562Z" fill="black"/>
</svg>
